<?xml version="1.0" standalone="no"?>
<!DOCTYPE svg PUBLIC "-//W3C//DTD SVG 20010904//EN"
 "http://www.w3.org/TR/2001/REC-SVG-20010904/DTD/svg10.dtd">
<svg version="1.0" xmlns="http://www.w3.org/2000/svg"
 width="512.000000pt" height="512.000000pt" viewBox="0 0 512.000000 512.000000"
 preserveAspectRatio="xMidYMid meet">
<metadata>
Created by potrace 1.14, written by Peter Selinger 2001-2017
</metadata>
<g transform="translate(0.000000,512.000000) scale(0.100000,-0.100000)"
fill="#000000" stroke="none">
<path d="M3044 5110 c-31 -12 -77 -65 -90 -102 -13 -38 -23 -39 -104 -9 -106
39 -182 21 -227 -56 -31 -53 -27 -111 11 -171 50 -79 246 -231 328 -253 76
-20 147 23 216 129 114 176 96 402 -35 458 -36 16 -68 17 -99 4z"/>
<path d="M1925 4733 c-203 -60 -301 -284 -186 -424 28 -34 81 -67 120 -74 9
-2 18 -4 20 -4 2 -1 -19 -19 -47 -41 -90 -72 -169 -212 -187 -332 -13 -86 -10
-132 17 -254 18 -84 7 -151 -41 -245 -23 -46 -47 -106 -55 -134 -38 -148 36
-308 177 -379 l47 -24 -41 -49 c-23 -26 -80 -90 -128 -142 -47 -52 -95 -105
-106 -117 -11 -12 -59 -64 -107 -115 -372 -403 -595 -801 -727 -1301 -33 -125
-76 -347 -86 -448 -3 -36 -8 -83 -10 -105 -3 -22 -7 -103 -10 -181 -7 -212 18
-274 133 -331 l57 -28 265 1 c146 0 384 3 530 7 146 4 342 10 435 12 525 14
532 15 581 72 38 45 44 93 39 303 -3 107 -7 209 -9 225 -2 17 -7 66 -10 110
-4 44 -9 91 -11 105 -2 14 -7 54 -10 90 -4 36 -9 72 -10 80 -5 27 -14 94 -20
140 -3 25 -8 52 -10 60 -2 8 -7 31 -10 50 -5 28 -31 168 -61 315 -2 11 -22 85
-44 165 -22 80 -48 172 -57 205 -24 87 -23 200 2 249 24 49 35 52 66 25 72
-63 184 -119 239 -119 18 0 21 -4 20 -25 -1 -10 29 -61 48 -82 33 -39 104 -63
184 -65 129 -2 202 16 255 64 16 15 39 21 85 23 68 3 168 37 243 80 l45 27 1
-94 c3 -193 9 -222 51 -244 24 -12 46 -15 91 -9 51 5 59 4 54 -9 -43 -112
-102 -338 -121 -470 -4 -21 -8 -48 -11 -60 -4 -22 -14 -105 -21 -196 -17 -199
-1 -512 32 -630 15 -52 46 -107 68 -122 6 -4 -16 -19 -49 -33 -148 -65 -219
-125 -202 -170 5 -11 82 -41 127 -50 3 0 37 -7 75 -15 74 -14 257 -19 340 -8
146 19 215 50 245 113 28 58 23 123 -12 146 -5 3 -2 21 6 40 21 52 30 140 41
409 3 69 7 141 10 160 2 19 7 55 10 80 9 75 36 191 59 250 43 109 90 229 101
255 55 127 94 279 99 379 3 79 -10 184 -25 200 -5 6 -2 18 8 28 13 14 17 38
17 91 0 60 -7 94 -47 209 -26 76 -54 150 -62 165 -8 15 -15 31 -15 35 0 12
-77 176 -145 311 -113 222 -238 420 -319 505 -29 31 -31 38 -33 113 -1 68 1
79 15 80 64 3 126 34 176 90 143 158 131 440 -26 641 -123 158 -312 240 -531
232 -77 -3 -242 -41 -342 -79 -188 -71 -262 -208 -184 -343 16 -29 36 -55 43
-58 13 -5 13 -9 -10 -99 -28 -112 -28 -289 0 -394 45 -166 121 -246 239 -252
55 -3 83 -27 92 -79 3 -19 8 -42 10 -50 2 -8 6 -55 10 -105 12 -208 32 -384
47 -431 5 -18 -61 -106 -111 -147 -25 -21 -75 -54 -111 -74 -36 -19 -80 -47
-98 -62 -103 -81 -117 -85 -197 -47 -49 23 -176 111 -250 173 -39 32 -39 32
-18 50 41 36 58 84 56 163 0 41 -2 82 -5 90 -13 44 -21 68 -33 95 -62 143 -77
181 -91 235 -17 68 -13 130 11 167 30 45 61 56 158 58 120 2 110 0 151 39 52
52 68 113 71 291 4 182 -10 309 -46 425 -12 36 -21 89 -21 119 -1 110 -76 200
-233 279 -151 76 -298 94 -411 52 -15 -6 -28 -9 -28 -8 -1 2 -10 22 -20 45
-50 115 -183 173 -311 136z"/>
</g>
</svg>
